<svg width="99" height="41" viewBox="0 0 99 41" fill="none" xmlns="http://www.w3.org/2000/svg">
<path d="M9.64 33.36C7.34667 33.36 5.56 32.88 4.28 31.92C3.02667 30.96 2.14667 29.6667 1.64 28.04C1.16 26.4133 0.92 24.6 0.92 22.6V11.16C0.92 8.97333 1.16 7.06667 1.64 5.44C2.14667 3.81333 3.02667 2.56 4.28 1.68C5.56 0.773332 7.34667 0.319999 9.64 0.319999C11.6667 0.319999 13.2667 0.693332 14.44 1.44C15.64 2.18667 16.4933 3.25333 17 4.64C17.5333 6.02667 17.8 7.69333 17.8 9.64V12.2H13.52V9.92C13.52 8.72 13.4533 7.66667 13.32 6.76C13.2133 5.82667 12.8933 5.10666 12.36 4.6C11.8267 4.09333 10.9333 3.84 9.68 3.84C8.4 3.84 7.46667 4.12 6.88 4.68C6.29333 5.21333 5.90667 5.98667 5.72 7C5.56 7.98667 5.48 9.14667 5.48 10.48V23.32C5.48 24.9467 5.61333 26.24 5.88 27.2C6.14667 28.1333 6.58667 28.8 7.2 29.2C7.81333 29.6 8.64 29.8 9.68 29.8C10.9067 29.8 11.7867 29.5333 12.32 29C12.8533 28.44 13.1867 27.68 13.32 26.72C13.4533 25.76 13.52 24.64 13.52 23.36V20.96H17.8V23.36C17.8 25.3333 17.56 27.08 17.08 28.6C16.6 30.0933 15.7733 31.2667 14.6 32.12C13.4267 32.9467 11.7733 33.36 9.64 33.36ZM28.1059 33.32C26.3993 33.32 25.0526 32.9733 24.0659 32.28C23.0793 31.5867 22.3726 30.6 21.9459 29.32C21.5459 28.04 21.3459 26.5333 21.3459 24.8V18.08C21.3459 16.3467 21.5459 14.84 21.9459 13.56C22.3726 12.28 23.0793 11.2933 24.0659 10.6C25.0526 9.90667 26.3993 9.56 28.1059 9.56C29.8126 9.56 31.1459 9.90667 32.1059 10.6C33.0926 11.2933 33.7859 12.28 34.1859 13.56C34.6126 14.84 34.8259 16.3467 34.8259 18.08V24.8C34.8259 26.5333 34.6126 28.04 34.1859 29.32C33.7859 30.6 33.0926 31.5867 32.1059 32.28C31.1459 32.9733 29.8126 33.32 28.1059 33.32ZM28.1059 30.16C28.9326 30.16 29.5059 29.92 29.8259 29.44C30.1726 28.96 30.3726 28.3333 30.4259 27.56C30.5059 26.76 30.5459 25.9333 30.5459 25.08V17.84C30.5459 16.96 30.5059 16.1333 30.4259 15.36C30.3726 14.5867 30.1726 13.96 29.8259 13.48C29.5059 12.9733 28.9326 12.72 28.1059 12.72C27.2793 12.72 26.6926 12.9733 26.3459 13.48C25.9993 13.96 25.7859 14.5867 25.7059 15.36C25.6526 16.1333 25.6259 16.96 25.6259 17.84V25.08C25.6259 25.9333 25.6526 26.76 25.7059 27.56C25.7859 28.3333 25.9993 28.96 26.3459 29.44C26.6926 29.92 27.2793 30.16 28.1059 30.16ZM44.0981 33.32C42.1515 33.32 40.6981 32.6133 39.7381 31.2C38.7781 29.76 38.2981 27.3333 38.2981 23.92V19.44C38.2981 17.68 38.4448 16.0533 38.7381 14.56C39.0315 13.04 39.5781 11.8267 40.3781 10.92C41.2048 10.0133 42.4048 9.56 43.9781 9.56C44.7515 9.56 45.4581 9.73333 46.0981 10.08C46.7381 10.4267 47.3115 10.8533 47.8181 11.36V0.599998H52.0981V33H47.8181V31.52C47.3115 32.0533 46.7515 32.4933 46.1381 32.84C45.5515 33.16 44.8715 33.32 44.0981 33.32ZM45.1781 29.96C45.5781 29.96 46.0048 29.8933 46.4581 29.76C46.9115 29.6 47.3648 29.3733 47.8181 29.08V13.92C47.4448 13.6533 47.0315 13.4267 46.5781 13.24C46.1248 13.0267 45.6315 12.92 45.0981 12.92C44.1115 12.92 43.4448 13.4 43.0981 14.36C42.7515 15.2933 42.5781 16.4267 42.5781 17.76V24.28C42.5781 25.3467 42.6315 26.32 42.7381 27.2C42.8715 28.0533 43.1248 28.7333 43.4981 29.24C43.8715 29.72 44.4315 29.96 45.1781 29.96ZM56.7134 33V9.88H60.9934V33H56.7134ZM56.7134 6.44V1.96H60.9934V6.44H56.7134ZM65.5741 33V9.88H69.8541V12.16C70.6274 11.44 71.4807 10.8267 72.4141 10.32C73.3474 9.81333 74.3741 9.56 75.4941 9.56C76.4274 9.56 77.1341 9.8 77.6141 10.28C78.1207 10.76 78.4674 11.36 78.6541 12.08C78.8674 12.8 78.9741 13.5333 78.9741 14.28V33H74.6941V15.52C74.6941 14.6933 74.5741 14.0533 74.3341 13.6C74.0941 13.1467 73.6007 12.92 72.8541 12.92C72.3741 12.92 71.8674 13.0667 71.3341 13.36C70.8274 13.6267 70.3341 13.96 69.8541 14.36V33H65.5741ZM89.1522 40.16C87.7655 40.16 86.5122 40.0133 85.3922 39.72C84.2722 39.4267 83.3922 38.96 82.7522 38.32C82.1122 37.68 81.7922 36.84 81.7922 35.8C81.7922 35.0533 81.9522 34.4 82.2722 33.84C82.5922 33.28 83.0055 32.8 83.5122 32.4C84.0189 31.9733 84.5522 31.6267 85.1122 31.36C84.3655 31.1467 83.8055 30.8133 83.4322 30.36C83.0589 29.88 82.8722 29.3867 82.8722 28.88C82.8722 28.0267 83.0989 27.2933 83.5522 26.68C84.0055 26.0667 84.6322 25.4 85.4322 24.68C84.5522 24.0133 83.8855 23.16 83.4322 22.12C82.9789 21.08 82.7522 19.64 82.7522 17.8C82.7522 15.9867 82.9922 14.48 83.4722 13.28C83.9789 12.0533 84.7122 11.1333 85.6722 10.52C86.6589 9.88 87.8589 9.56 89.2722 9.56C90.5255 9.56 91.5255 9.77333 92.2722 10.2C93.0455 10.6267 93.6322 11.2667 94.0322 12.12C94.1655 11.9067 94.5255 11.5467 95.1122 11.04C95.6989 10.5067 96.3789 10.0667 97.1522 9.72L97.7922 9.44L98.8722 12.2C98.5255 12.2533 98.0589 12.3867 97.4722 12.6C96.9122 12.7867 96.3789 12.9867 95.8722 13.2C95.3922 13.3867 95.0855 13.5467 94.9522 13.68C95.1389 14.1333 95.2989 14.7867 95.4322 15.64C95.5922 16.4933 95.6722 17.2533 95.6722 17.92C95.6722 19.4933 95.4722 20.88 95.0722 22.08C94.6722 23.28 94.0055 24.2267 93.0722 24.92C92.1655 25.5867 90.8989 25.92 89.2722 25.92C88.9255 25.92 88.5522 25.8933 88.1522 25.84C87.7522 25.7867 87.3922 25.72 87.0722 25.64C86.9122 25.88 86.7389 26.16 86.5522 26.48C86.3922 26.8 86.3122 27.1067 86.3122 27.4C86.3122 27.6933 86.4589 27.9333 86.7522 28.12C87.0722 28.28 87.5655 28.3867 88.2322 28.44L91.8322 28.76C93.6455 28.92 94.9922 29.4667 95.8722 30.4C96.7522 31.3333 97.1922 32.6667 97.1922 34.4C97.1922 35.6533 96.8989 36.7067 96.3122 37.56C95.7255 38.44 94.8322 39.0933 93.6322 39.52C92.4589 39.9467 90.9655 40.16 89.1522 40.16ZM89.4722 36.8C90.9922 36.8 92.1122 36.6133 92.8322 36.24C93.5522 35.8933 93.9122 35.32 93.9122 34.52C93.9122 34.04 93.8189 33.64 93.6322 33.32C93.4722 33 93.1655 32.7467 92.7122 32.56C92.2589 32.3733 91.6055 32.24 90.7522 32.16L87.1122 31.84C86.8189 32.1333 86.5389 32.4267 86.2722 32.72C86.0055 33.0133 85.7922 33.32 85.6322 33.64C85.4722 33.9867 85.3922 34.3467 85.3922 34.72C85.3922 35.4133 85.6855 35.9333 86.2722 36.28C86.8589 36.6267 87.9255 36.8 89.4722 36.8ZM89.2722 22.92C89.8855 22.92 90.3655 22.8133 90.7122 22.6C91.0855 22.36 91.3655 22.0267 91.5522 21.6C91.7389 21.1467 91.8589 20.6 91.9122 19.96C91.9922 19.32 92.0322 18.6 92.0322 17.8C92.0322 17 91.9922 16.28 91.9122 15.64C91.8589 14.9733 91.7389 14.4133 91.5522 13.96C91.3922 13.48 91.1255 13.12 90.7522 12.88C90.4055 12.64 89.9255 12.52 89.3122 12.52C88.7255 12.52 88.2322 12.64 87.8322 12.88C87.4589 13.12 87.1789 13.4667 86.9922 13.92C86.8055 14.3467 86.6722 14.8933 86.5922 15.56C86.5122 16.2 86.4722 16.9467 86.4722 17.8C86.4722 18.52 86.4989 19.2 86.5522 19.84C86.6322 20.4533 86.7655 20.9867 86.9522 21.44C87.1655 21.8933 87.4589 22.2533 87.8322 22.52C88.2055 22.7867 88.6855 22.92 89.2722 22.92Z" fill="white"/>
</svg>
