<svg width="30" height="35" viewBox="0 0 30 35" fill="none" xmlns="http://www.w3.org/2000/svg">
<path d="M29.3145 29.8444L22.3008 21.793C23.8957 19.075 24.6826 15.6789 24.2614 12.0601C23.543 5.90495 19.1484 0.895914 13.7812 0.11587C5.80132 -1.04326 -0.90886 6.65964 0.100948 15.8201C0.780638 21.9841 5.14472 27.0328 10.5072 27.8534C13.6596 28.3369 16.6186 27.4339 18.9858 25.6028L25.9995 33.6541C26.9147 34.7048 28.3989 34.7048 29.3141 33.6541C30.2286 32.6021 30.2286 30.8937 29.3145 29.8444ZM4.63472 13.9906C4.63472 9.24319 7.99918 5.38098 12.1347 5.38098C16.2703 5.38098 19.6348 9.24319 19.6348 13.9906C19.6348 18.738 16.2703 22.6002 12.1347 22.6002C7.99918 22.6002 4.63472 18.7393 4.63472 13.9906Z" fill="black"/>
</svg>
